<?xml version="1.0" encoding="UTF-8"?>
<!DOCTYPE svg PUBLIC "-//W3C//DTD SVG 1.1//EN" "http://www.w3.org/Graphics/SVG/1.1/DTD/svg11.dtd">
<svg xmlns="http://www.w3.org/2000/svg" version="1.1" width="200px" height="200px" style="shape-rendering:geometricPrecision; text-rendering:geometricPrecision; image-rendering:optimizeQuality; fill-rule:evenodd; clip-rule:evenodd" xmlns:xlink="http://www.w3.org/1999/xlink">
<g><path style="opacity:1" fill="#4f05fc" d="M 91.5,1.5 C 103.002,0.919563 114.336,1.91956 125.5,4.5C 122.673,14.4873 119.006,24.1539 114.5,33.5C 108.263,35.0395 101.929,36.0395 95.5,36.5C 92.3904,35.7222 90.7237,33.7222 90.5,30.5C 91.5932,24.1812 92.5932,17.8479 93.5,11.5C 92.9578,8.12231 92.2911,4.78898 91.5,1.5 Z"/></g>
<g><path style="opacity:0.982" fill="#281afd" d="M 91.5,1.5 C 92.2911,4.78898 92.9578,8.12231 93.5,11.5C 92.5932,17.8479 91.5932,24.1812 90.5,30.5C 90.7237,33.7222 92.3904,35.7222 95.5,36.5C 83.9332,40.1176 73.2666,45.6176 63.5,53C 60.9644,53.1862 58.631,53.6862 56.5,54.5C 55.1667,54.5 54.5,55.1667 54.5,56.5C 53.5655,57.5676 53.2322,58.901 53.5,60.5C 43.7491,52.6261 34.4158,44.2928 25.5,35.5C 36.8835,21.6572 51.2168,11.8239 68.5,6C 76.0092,3.66481 83.6758,2.16481 91.5,1.5 Z"/></g>
<g><path style="opacity:1" fill="#6a02f8" d="M 125.5,4.5 C 137.307,7.7366 147.973,13.0699 157.5,20.5C 148.548,30.6533 137.548,37.82 124.5,42C 119.177,43.6085 113.844,45.1085 108.5,46.5C 109.711,43.0743 111.211,39.741 113,36.5C 114.154,37.7433 115.488,38.7433 117,39.5C 118.039,37.2537 119.206,35.087 120.5,33C 118.575,33.1349 116.575,33.3016 114.5,33.5C 119.006,24.1539 122.673,14.4873 125.5,4.5 Z"/></g>
<g><path style="opacity:1" fill="#7009ee" d="M 157.5,20.5 C 160.473,22.1468 163.14,24.1468 165.5,26.5C 157.191,33.2917 148.191,39.125 138.5,44C 136.194,48.7998 132.861,52.2998 128.5,54.5C 128.167,54.5 127.833,54.5 127.5,54.5C 124.81,57.3648 121.477,59.5315 117.5,61C 115.877,63.0795 114.377,65.2462 113,67.5C 111.488,66.7433 110.154,65.7433 109,64.5C 103.489,67.5867 98.1558,70.92 93,74.5C 93.049,72.325 93.549,70.1583 94.5,68C 93.8699,66.6898 92.8699,65.8565 91.5,65.5C 94.9389,63.6064 98.2722,61.4397 101.5,59C 98.8723,57.3745 96.539,55.3745 94.5,53C 99.0223,50.3352 103.689,48.1685 108.5,46.5C 113.844,45.1085 119.177,43.6085 124.5,42C 137.548,37.82 148.548,30.6533 157.5,20.5 Z"/></g>
<g><path style="opacity:1" fill="#4815f5" d="M 108.5,46.5 C 103.689,48.1685 99.0223,50.3352 94.5,53C 96.539,55.3745 98.8723,57.3745 101.5,59C 98.2722,61.4397 94.9389,63.6064 91.5,65.5C 90.8411,67.1379 90.1744,68.8045 89.5,70.5C 84.544,71.4941 79.544,71.8275 74.5,71.5C 73.8826,71.3893 73.3826,71.056 73,70.5C 72.8071,65.2497 72.3071,60.083 71.5,55C 66.5111,54.5007 61.5111,54.3341 56.5,54.5C 58.631,53.6862 60.9644,53.1862 63.5,53C 73.2666,45.6176 83.9332,40.1176 95.5,36.5C 101.929,36.0395 108.263,35.0395 114.5,33.5C 116.575,33.3016 118.575,33.1349 120.5,33C 119.206,35.087 118.039,37.2537 117,39.5C 115.488,38.7433 114.154,37.7433 113,36.5C 111.211,39.741 109.711,43.0743 108.5,46.5 Z"/></g>
<g><path style="opacity:0.957" fill="#112dfc" d="M 25.5,35.5 C 34.4158,44.2928 43.7491,52.6261 53.5,60.5C 52.2484,63.3547 51.2484,66.3547 50.5,69.5C 51.9105,74.5507 51.7438,79.5507 50,84.5C 37.7405,74.3983 24.5739,65.7317 10.5,58.5C 13.7613,49.6295 18.7613,41.9628 25.5,35.5 Z"/></g>
<g><path style="opacity:1" fill="#9008e2" d="M 165.5,26.5 C 171.196,31.5628 176.196,37.2294 180.5,43.5C 175.091,46.7345 170.091,50.5678 165.5,55C 159.043,57.9795 152.543,60.8128 146,63.5C 145.814,60.9644 145.314,58.631 144.5,56.5C 144.389,55.8826 144.056,55.3826 143.5,55C 138.511,54.5007 133.511,54.3341 128.5,54.5C 132.861,52.2998 136.194,48.7998 138.5,44C 148.191,39.125 157.191,33.2917 165.5,26.5 Z"/></g>
<g><path style="opacity:1" fill="#9e0cd5" d="M 180.5,43.5 C 183.943,48.0506 186.61,53.0506 188.5,58.5C 169.865,66.148 151.198,73.8147 132.5,81.5C 130.808,83.3586 129.308,85.3586 128,87.5C 127.501,83.1794 127.334,78.8461 127.5,74.5C 127.611,73.8826 127.944,73.3826 128.5,73C 133.75,72.8071 138.917,72.3071 144,71.5C 144.499,66.5111 144.666,61.5111 144.5,56.5C 145.314,58.631 145.814,60.9644 146,63.5C 152.543,60.8128 159.043,57.9795 165.5,55C 170.091,50.5678 175.091,46.7345 180.5,43.5 Z"/></g>
<g><path style="opacity:1" fill="#fefefe" d="M 56.5,54.5 C 61.5111,54.3341 66.5111,54.5007 71.5,55C 72.3071,60.083 72.8071,65.2497 73,70.5C 73.3826,71.056 73.8826,71.3893 74.5,71.5C 79.5667,72.1882 84.7334,72.8549 90,73.5C 90.3333,78.1667 90.6667,82.8333 91,87.5C 91.3742,88.4162 91.8742,89.2496 92.5,90C 97.1667,90.6667 101.833,90.6667 106.5,90C 107,89.5 107.5,89 108,88.5C 108.333,83.5 108.667,78.5 109,73.5C 114.083,72.6929 119.25,72.1929 124.5,72C 125,71.5 125.5,71 126,70.5C 126.215,65.0849 126.715,59.7516 127.5,54.5C 127.833,54.5 128.167,54.5 128.5,54.5C 133.511,54.3341 138.511,54.5007 143.5,55C 144.056,55.3826 144.389,55.8826 144.5,56.5C 144.666,61.5111 144.499,66.5111 144,71.5C 138.917,72.3071 133.75,72.8071 128.5,73C 127.944,73.3826 127.611,73.8826 127.5,74.5C 126.352,78.9811 126.185,83.6478 127,88.5C 127.383,89.056 127.883,89.3893 128.5,89.5C 133.316,90.3261 138.316,90.8261 143.5,91C 144.056,91.3826 144.389,91.8826 144.5,92.5C 144.5,102.167 144.5,111.833 144.5,121.5C 144.5,128.5 144.5,135.5 144.5,142.5C 144.167,143.5 143.5,144.167 142.5,144.5C 137.489,144.666 132.489,144.499 127.5,144C 126.594,142.301 126.261,140.467 126.5,138.5C 126.5,134.5 126.5,130.5 126.5,126.5C 126.5,122.5 126.5,118.5 126.5,114.5C 126.5,110.833 126.5,107.167 126.5,103.5C 126.665,99.8183 126.499,96.1516 126,92.5C 125.5,92 125,91.5 124.5,91C 119.833,90.3333 115.167,90.3333 110.5,91C 109.944,91.3826 109.611,91.8826 109.5,92.5C 108.812,97.5667 108.145,102.733 107.5,108C 102.511,108.499 97.5111,108.666 92.5,108.5C 91.8826,108.389 91.3826,108.056 91,107.5C 90.8261,102.316 90.3261,97.3165 89.5,92.5C 89.0825,91.7784 88.4158,91.2784 87.5,91C 83.1667,90.3333 78.8333,90.3333 74.5,91C 74,91.5 73.5,92 73,92.5C 72.5002,103.161 72.3335,113.828 72.5,124.5C 72.5,130.167 72.5,135.833 72.5,141.5C 72.5858,142.496 72.2524,143.329 71.5,144C 66.5111,144.499 61.5111,144.666 56.5,144.5C 56.1667,144.5 55.8333,144.5 55.5,144.5C 54.5033,127.341 54.17,110.008 54.5,92.5C 54.6107,91.8826 54.944,91.3826 55.5,91C 60.5,90.6667 65.5,90.3333 70.5,90C 72.0138,87.4129 72.6804,84.5795 72.5,81.5C 72.7086,78.5457 72.0419,75.879 70.5,73.5C 65.3016,72.8565 60.1349,72.1898 55,71.5C 54.5007,66.5111 54.3341,61.5111 54.5,56.5C 54.5,55.1667 55.1667,54.5 56.5,54.5 Z"/></g>
<g><path style="opacity:0.989" fill="#a90eca" d="M 188.5,58.5 C 190.065,60.5093 191.065,62.8427 191.5,65.5C 182.374,69.2156 173.041,72.7156 163.5,76C 157.519,82.1484 150.519,86.4817 142.5,89C 137.845,89.4992 133.179,89.6658 128.5,89.5C 127.883,89.3893 127.383,89.056 127,88.5C 126.185,83.6478 126.352,78.9811 127.5,74.5C 127.334,78.8461 127.501,83.1794 128,87.5C 129.308,85.3586 130.808,83.3586 132.5,81.5C 151.198,73.8147 169.865,66.148 188.5,58.5 Z"/></g>
<g><path style="opacity:1" fill="#6b1de2" d="M 127.5,54.5 C 126.715,59.7516 126.215,65.0849 126,70.5C 125.5,71 125,71.5 124.5,72C 119.25,72.1929 114.083,72.6929 109,73.5C 108.667,78.5 108.333,83.5 108,88.5C 107.5,89 107,89.5 106.5,90C 101.833,90.6667 97.1667,90.6667 92.5,90C 91.8742,89.2496 91.3742,88.4162 91,87.5C 90.6667,82.8333 90.3333,78.1667 90,73.5C 84.7334,72.8549 79.5667,72.1882 74.5,71.5C 79.544,71.8275 84.544,71.4941 89.5,70.5C 90.1744,68.8045 90.8411,67.1379 91.5,65.5C 92.8699,65.8565 93.8699,66.6898 94.5,68C 93.549,70.1583 93.049,72.325 93,74.5C 98.1558,70.92 103.489,67.5867 109,64.5C 110.154,65.7433 111.488,66.7433 113,67.5C 114.377,65.2462 115.877,63.0795 117.5,61C 121.477,59.5315 124.81,57.3648 127.5,54.5 Z"/></g>
<g><path style="opacity:0.976" fill="#1837fa" d="M 54.5,56.5 C 54.3341,61.5111 54.5007,66.5111 55,71.5C 60.1349,72.1898 65.3016,72.8565 70.5,73.5C 72.0419,75.879 72.7086,78.5457 72.5,81.5C 72.6804,84.5795 72.0138,87.4129 70.5,90C 65.5,90.3333 60.5,90.6667 55.5,91C 54.944,91.3826 54.6107,91.8826 54.5,92.5C 53.5184,95.9619 53.185,99.6286 53.5,103.5C 48.874,100.046 44.374,96.3793 40,92.5C 38.2173,96.2982 37.3839,100.298 37.5,104.5C 29.5408,99.8537 21.2075,95.6871 12.5,92C 8.89601,90.8461 5.22934,90.0128 1.5,89.5C 2.71438,78.5365 5.71438,68.2032 10.5,58.5C 24.5739,65.7317 37.7405,74.3983 50,84.5C 51.7438,79.5507 51.9105,74.5507 50.5,69.5C 51.2484,66.3547 52.2484,63.3547 53.5,60.5C 53.2322,58.901 53.5655,57.5676 54.5,56.5 Z"/></g>
<g><path style="opacity:1" fill="#b711bf" d="M 191.5,65.5 C 193.435,69.8949 194.769,74.5615 195.5,79.5C 185.919,81.2701 176.419,83.6034 167,86.5C 160.481,92.0049 153.314,96.3382 145.5,99.5C 145.802,96.9407 145.468,94.6074 144.5,92.5C 144.389,91.8826 144.056,91.3826 143.5,91C 138.316,90.8261 133.316,90.3261 128.5,89.5C 133.179,89.6658 137.845,89.4992 142.5,89C 150.519,86.4817 157.519,82.1484 163.5,76C 173.041,72.7156 182.374,69.2156 191.5,65.5 Z"/></g>
<g><path style="opacity:1" fill="#c813af" d="M 195.5,79.5 C 197.158,86.356 197.824,93.356 197.5,100.5C 181.75,101.083 166.416,103.917 151.5,109C 149.391,110.141 147.558,111.641 146,113.5C 145.501,108.845 145.334,104.179 145.5,99.5C 153.314,96.3382 160.481,92.0049 167,86.5C 176.419,83.6034 185.919,81.2701 195.5,79.5 Z"/></g>
<g><path style="opacity:1" fill="#0b42fa" d="M 1.5,89.5 C 5.22934,90.0128 8.89601,90.8461 12.5,92C 21.2075,95.6871 29.5408,99.8537 37.5,104.5C 37.3839,100.298 38.2173,96.2982 40,92.5C 44.374,96.3793 48.874,100.046 53.5,103.5C 53.5,109.167 53.5,114.833 53.5,120.5C 52.8826,120.389 52.3826,120.056 52,119.5C 49.9252,123.984 47.5919,128.317 45,132.5C 42.0202,128.686 38.8535,125.019 35.5,121.5C 31.6304,133.027 24.2971,141.361 13.5,146.5C 3.64116,128.88 -0.358841,109.88 1.5,89.5 Z"/></g>
<g><path style="opacity:1" fill="#552fdc" d="M 89.5,92.5 C 89.8256,96.8839 89.4922,101.217 88.5,105.5C 86.1499,108.035 84.6499,111.035 84,114.5C 82.8647,114.727 81.698,115.06 80.5,115.5C 77.9734,118.541 75.8068,121.874 74,125.5C 73.6174,124.944 73.1174,124.611 72.5,124.5C 72.3335,113.828 72.5002,103.161 73,92.5C 73.5,92 74,91.5 74.5,91C 78.8333,90.3333 83.1667,90.3333 87.5,91C 88.4158,91.2784 89.0825,91.7784 89.5,92.5 Z"/></g>
<g><path style="opacity:1" fill="#9522c2" d="M 126.5,103.5 C 117.416,106.583 110.416,112.25 105.5,120.5C 103.775,120.157 103.275,119.157 104,117.5C 107.406,111.088 111.239,104.922 115.5,99C 113.322,98.8348 111.489,99.6682 110,101.5C 109.502,98.5184 109.335,95.5184 109.5,92.5C 109.611,91.8826 109.944,91.3826 110.5,91C 115.167,90.3333 119.833,90.3333 124.5,91C 125,91.5 125.5,92 126,92.5C 126.499,96.1516 126.665,99.8183 126.5,103.5 Z"/></g>
<g><path style="opacity:0.991" fill="#d519a2" d="M 144.5,92.5 C 145.468,94.6074 145.802,96.9407 145.5,99.5C 145.334,104.179 145.501,108.845 146,113.5C 147.558,111.641 149.391,110.141 151.5,109C 166.416,103.917 181.75,101.083 197.5,100.5C 197.717,105.23 197.383,109.897 196.5,114.5C 178.668,113.476 161.335,115.81 144.5,121.5C 144.5,111.833 144.5,102.167 144.5,92.5 Z"/></g>
<g><path style="opacity:1" fill="#6c34cb" d="M 89.5,92.5 C 90.3261,97.3165 90.8261,102.316 91,107.5C 91.3826,108.056 91.8826,108.389 92.5,108.5C 96.6845,109.166 101.018,109.833 105.5,110.5C 98.699,116.956 92.699,123.956 87.5,131.5C 86.1783,133.263 84.6783,134.93 83,136.5C 82.0853,135.672 81.4186,134.672 81,133.5C 80.6667,133.833 80.3333,134.167 80,134.5C 79.7104,132.956 79.0437,131.623 78,130.5C 76.1363,134.227 74.3029,137.894 72.5,141.5C 72.5,135.833 72.5,130.167 72.5,124.5C 73.1174,124.611 73.6174,124.944 74,125.5C 75.8068,121.874 77.9734,118.541 80.5,115.5C 81.698,115.06 82.8647,114.727 84,114.5C 84.6499,111.035 86.1499,108.035 88.5,105.5C 89.4922,101.217 89.8256,96.8839 89.5,92.5 Z"/></g>
<g><path style="opacity:0.993" fill="#e11e95" d="M 196.5,114.5 C 196.039,120.164 194.706,125.497 192.5,130.5C 179.817,127.804 166.817,127.971 153.5,131C 150.751,132.123 148.251,133.623 146,135.5C 145.505,137.473 145.338,139.473 145.5,141.5C 145.5,142.167 145.167,142.5 144.5,142.5C 144.5,135.5 144.5,128.5 144.5,121.5C 161.335,115.81 178.668,113.476 196.5,114.5 Z"/></g>
<g><path style="opacity:1" fill="#8c32be" d="M 109.5,92.5 C 109.335,95.5184 109.502,98.5184 110,101.5C 111.489,99.6682 113.322,98.8348 115.5,99C 111.239,104.922 107.406,111.088 104,117.5C 103.275,119.157 103.775,120.157 105.5,120.5C 105.804,121.15 106.137,121.817 106.5,122.5C 104.517,124.984 102.35,127.317 100,129.5C 99.5172,130.448 99.3505,131.448 99.5,132.5C 98.5,132.5 97.5,132.5 96.5,132.5C 96.719,131.325 96.3857,130.325 95.5,129.5C 91.9258,133.009 88.5924,136.676 85.5,140.5C 85.3893,139.883 85.056,139.383 84.5,139C 86.2024,136.765 87.2024,134.265 87.5,131.5C 92.699,123.956 98.699,116.956 105.5,110.5C 101.018,109.833 96.6845,109.166 92.5,108.5C 97.5111,108.666 102.511,108.499 107.5,108C 108.145,102.733 108.812,97.5667 109.5,92.5 Z"/></g>
<g><path style="opacity:1" fill="#a02ab3" d="M 126.5,103.5 C 126.5,107.167 126.5,110.833 126.5,114.5C 118.273,119.557 110.773,125.557 104,132.5C 103.51,133.793 103.343,135.127 103.5,136.5C 102.5,136.5 101.5,136.5 100.5,136.5C 100.567,135.041 100.234,133.708 99.5,132.5C 99.3505,131.448 99.5172,130.448 100,129.5C 102.35,127.317 104.517,124.984 106.5,122.5C 106.137,121.817 105.804,121.15 105.5,120.5C 110.416,112.25 117.416,106.583 126.5,103.5 Z"/></g>
<g><path style="opacity:1" fill="#1548f3" d="M 53.5,120.5 C 54.4716,126.91 52.9716,132.576 49,137.5C 47.647,136.315 46.4803,134.981 45.5,133.5C 41.401,140.698 36.5677,147.364 31,153.5C 30.4569,151.369 29.6236,149.369 28.5,147.5C 25.5645,150.759 22.2312,153.426 18.5,155.5C 16.4042,152.738 14.7375,149.738 13.5,146.5C 24.2971,141.361 31.6304,133.027 35.5,121.5C 38.8535,125.019 42.0202,128.686 45,132.5C 47.5919,128.317 49.9252,123.984 52,119.5C 52.3826,120.056 52.8826,120.389 53.5,120.5 Z"/></g>
<g><path style="opacity:0.96" fill="#ec1f88" d="M 192.5,130.5 C 191.285,135.812 189.285,140.812 186.5,145.5C 174.863,140.757 163.196,140.424 151.5,144.5C 149.483,143.471 147.483,142.471 145.5,141.5C 145.338,139.473 145.505,137.473 146,135.5C 148.251,133.623 150.751,132.123 153.5,131C 166.817,127.971 179.817,127.804 192.5,130.5 Z"/></g>
<g><path style="opacity:0.97" fill="#314be7" d="M 54.5,92.5 C 54.17,110.008 54.5033,127.341 55.5,144.5C 54.516,147.07 53.3493,147.07 52,144.5C 49.7529,149.738 46.4196,154.071 42,157.5C 38.6121,162.048 35.4454,166.714 32.5,171.5C 27.3719,166.582 22.7052,161.249 18.5,155.5C 22.2312,153.426 25.5645,150.759 28.5,147.5C 29.6236,149.369 30.4569,151.369 31,153.5C 36.5677,147.364 41.401,140.698 45.5,133.5C 46.4803,134.981 47.647,136.315 49,137.5C 52.9716,132.576 54.4716,126.91 53.5,120.5C 53.5,114.833 53.5,109.167 53.5,103.5C 53.185,99.6286 53.5184,95.9619 54.5,92.5 Z"/></g>
<g><path style="opacity:1" fill="#bb349a" d="M 126.5,126.5 C 126.5,130.5 126.5,134.5 126.5,138.5C 112.351,148.084 102.518,161.084 97,177.5C 94.9935,184.031 93.8269,190.698 93.5,197.5C 90.7212,197.721 88.0545,197.388 85.5,196.5C 90.0528,177.568 97.7195,160.068 108.5,144C 107.549,143.282 107.383,142.449 108,141.5C 113.197,135.119 119.364,130.119 126.5,126.5 Z"/></g>
<g><path style="opacity:1" fill="#f4297a" d="M 186.5,145.5 C 183.134,152.245 178.801,158.245 173.5,163.5C 171.887,161.73 169.887,160.564 167.5,160C 152.582,157.417 140.082,161.584 130,172.5C 128.309,179.491 128.142,186.491 129.5,193.5C 125.479,194.503 121.479,195.503 117.5,196.5C 116.81,185.942 119.31,176.275 125,167.5C 132.794,158.533 141.627,150.866 151.5,144.5C 163.196,140.424 174.863,140.757 186.5,145.5 Z"/></g>
<g><path style="opacity:1" fill="#a938a2" d="M 126.5,114.5 C 126.5,118.5 126.5,122.5 126.5,126.5C 119.364,130.119 113.197,135.119 108,141.5C 107.383,142.449 107.549,143.282 108.5,144C 97.7195,160.068 90.0528,177.568 85.5,196.5C 82.7938,196.425 80.1272,196.092 77.5,195.5C 80.296,186.608 82.796,177.608 85,168.5C 89.4431,161.618 92.7765,154.284 95,146.5C 97.0995,143.3 98.9328,139.967 100.5,136.5C 101.5,136.5 102.5,136.5 103.5,136.5C 103.343,135.127 103.51,133.793 104,132.5C 110.773,125.557 118.273,119.557 126.5,114.5 Z"/></g>
<g><path style="opacity:0.959" fill="#fb2c72" d="M 173.5,163.5 C 161.896,177.734 147.229,187.734 129.5,193.5C 128.142,186.491 128.309,179.491 130,172.5C 140.082,161.584 152.582,157.417 167.5,160C 169.887,160.564 171.887,161.73 173.5,163.5 Z"/></g>
<g><path style="opacity:0.988" fill="#e13382" d="M 145.5,141.5 C 147.483,142.471 149.483,143.471 151.5,144.5C 141.627,150.866 132.794,158.533 125,167.5C 119.31,176.275 116.81,185.942 117.5,196.5C 113.846,196.942 110.179,197.276 106.5,197.5C 106.709,184.328 109.876,171.995 116,160.5C 120.885,156.282 125.052,151.448 128.5,146C 133.351,145.826 138.018,145.326 142.5,144.5C 143.5,144.167 144.167,143.5 144.5,142.5C 145.167,142.5 145.5,142.167 145.5,141.5 Z"/></g>
<g><path style="opacity:0.967" fill="#4e46d2" d="M 55.5,144.5 C 55.8333,144.5 56.1667,144.5 56.5,144.5C 60.3525,145.166 64.3525,145.833 68.5,146.5C 66.3333,151.5 64.1667,156.5 62,161.5C 61,162.833 60,162.833 59,161.5C 55.6464,168.883 51.8131,175.883 47.5,182.5C 41.9586,179.564 36.9586,175.897 32.5,171.5C 35.4454,166.714 38.6121,162.048 42,157.5C 46.4196,154.071 49.7529,149.738 52,144.5C 53.3493,147.07 54.516,147.07 55.5,144.5 Z"/></g>
<g><path style="opacity:0.963" fill="#6a43c3" d="M 87.5,131.5 C 87.2024,134.265 86.2024,136.765 84.5,139C 85.056,139.383 85.3893,139.883 85.5,140.5C 82.441,145.451 79.7743,150.618 77.5,156C 78.1667,157 78.8333,158 79.5,159C 74.3019,169.712 69.3019,180.545 64.5,191.5C 58.355,189.263 52.6883,186.263 47.5,182.5C 51.8131,175.883 55.6464,168.883 59,161.5C 60,162.833 61,162.833 62,161.5C 64.1667,156.5 66.3333,151.5 68.5,146.5C 64.3525,145.833 60.3525,145.166 56.5,144.5C 61.5111,144.666 66.5111,144.499 71.5,144C 72.2524,143.329 72.5858,142.496 72.5,141.5C 74.3029,137.894 76.1363,134.227 78,130.5C 79.0437,131.623 79.7104,132.956 80,134.5C 80.3333,134.167 80.6667,133.833 81,133.5C 81.4186,134.672 82.0853,135.672 83,136.5C 84.6783,134.93 86.1783,133.263 87.5,131.5 Z"/></g>
<g><path style="opacity:0.985" fill="#903eae" d="M 99.5,132.5 C 100.234,133.708 100.567,135.041 100.5,136.5C 98.9328,139.967 97.0995,143.3 95,146.5C 92.7765,154.284 89.4431,161.618 85,168.5C 82.796,177.608 80.296,186.608 77.5,195.5C 73.1039,194.318 68.7705,192.985 64.5,191.5C 69.3019,180.545 74.3019,169.712 79.5,159C 78.8333,158 78.1667,157 77.5,156C 79.7743,150.618 82.441,145.451 85.5,140.5C 88.5924,136.676 91.9258,133.009 95.5,129.5C 96.3857,130.325 96.719,131.325 96.5,132.5C 97.5,132.5 98.5,132.5 99.5,132.5 Z"/></g>
<g><path style="opacity:0.988" fill="#cb378e" d="M 126.5,138.5 C 126.261,140.467 126.594,142.301 127.5,144C 132.489,144.499 137.489,144.666 142.5,144.5C 138.018,145.326 133.351,145.826 128.5,146C 125.052,151.448 120.885,156.282 116,160.5C 109.876,171.995 106.709,184.328 106.5,197.5C 102.167,197.5 97.8333,197.5 93.5,197.5C 93.8269,190.698 94.9935,184.031 97,177.5C 102.518,161.084 112.351,148.084 126.5,138.5 Z"/></g>
</svg>
